# xmcd
#
# Track frame offsets:
#	150
#	17188
#	35013
#	62930
#	96786
#	111296
#	128523
#	144338
#	169952
#	192405
#	213002
#	235855
#
# Disc length: 3343 seconds
#
# Revision: 1
# Processed by: cddbd v1.5.2PL0 Copyright (c) Steve Scherf et al.
# Submitted via: audiograbber 1.83.01
#
DISCID=a70d0d0c
DTITLE=Lounge - Lounge 5 - New Jazz
DYEAR=2005
DGENRE=Jazz
TTITLE0=Peter Cincotti - I love Paris
TTITLE1=Nicola Conte - Sea and Sand
TTITLE2=Joel Harrison, feat. Norah Jones - Tennessee waltz
TTITLE3=Gotan project meet Chet Baker - Round about midnight
TTITLE4=Montefiori Cocktail - Comment te dire adieu
TTITLE5=Alfredo Rey e la sua Orchestra - Non m'annoio
TTITLE6=Peter Cincotti - Some kind of wonderful
TTITLE7=Nicola Conte - Kind of sunshine
TTITLE8=Jimmy Scott - Heaven
TTITLE9=Cassandra Wilson - Subatomic blues
TTITLE10=Joel Harrison, feat. Norah Jones - I walk the line
TTITLE11=Nicola Arigliano - Carina
EXTD=YEAR: 2005
EXTT0=
EXTT1=
EXTT2=
EXTT3=
EXTT4=
EXTT5=
EXTT6=
EXTT7=
EXTT8=
EXTT9=
EXTT10=
EXTT11=
PLAYORDER=
